<svg width="320" height="250" viewBox="0 0 320 320" fill="none" xmlns="http://www.w3.org/2000/svg"><path d="M266.667 160C266.667 218.91 218.91 266.666 160 266.666C101.09 266.666 53.3334 218.91 53.3334 160C53.3334 101.089 101.09 53.333 160 53.333C218.91 53.333 266.667 101.089 266.667 160Z" fill="#0067C7"></path><path d="M236.165 72.7108C250.125 70.1326 262.912 69.2591 273.458 70.6755C283.729 72.0548 293.935 75.9258 299.533 84.8727C305.483 94.3833 303.689 105.427 299.369 114.974C294.979 124.676 287.126 134.958 277.075 145.216C256.869 165.838 225.928 188.23 189.114 207.844C152.286 227.465 115.857 240.962 86.5354 246.772C71.9286 249.666 58.5597 250.76 47.5661 249.454C36.8976 248.186 26.2373 244.349 20.4672 235.127C14.1898 225.094 16.5147 213.39 21.3951 203.401C26.3952 193.167 35.166 182.257 46.3582 171.363L53.3335 165.553C53.3335 168.465 54.4449 175.009 55.5749 180.832C56.1685 183.89 56.7672 186.75 57.2126 188.779C48.5214 197.649 42.574 205.613 39.365 212.181C35.6686 219.747 36.5892 223.188 37.4221 224.519C38.3931 226.071 41.4894 228.591 49.9256 229.593C58.0368 230.557 69.121 229.833 82.6482 227.153C109.595 221.814 144.158 209.134 179.71 190.193C215.276 171.244 244.397 149.99 262.789 131.219C272.036 121.781 278.116 113.43 281.148 106.729C284.25 99.8734 283.369 96.7448 282.578 95.4807C281.642 93.9842 278.723 91.562 270.796 90.4975C263.577 89.528 253.838 89.947 241.955 91.9931L224.93 75.413C229.446 74.0605 233.705 73.1367 236.165 72.7108Z" fill="#ACEB84"></path></svg>