<svg xmlns="http://www.w3.org/2000/svg" viewBox="0 0 129 28" fill="none" height="35" class="css-bqdpru"><path d="M43.0158 5.89128H46.8919C49.0753 5.89128 50.5262 6.27947 51.2448 7.05591C51.9634 7.83236 52.3227 8.76997 52.3227 9.86871C52.3227 10.6012 52.1707 11.2971 51.8666 11.9564C51.5626 12.601 51.079 13.0844 50.4157 13.4067C51.3968 13.6704 52.1154 14.1318 52.5715 14.7911C53.0413 15.4504 53.2762 16.2268 53.2762 17.1204C53.2762 18.0581 53.138 18.8785 52.8616 19.5817C52.5853 20.2849 52.0118 20.8709 51.1412 21.3397C50.2706 21.8085 49.0131 22.0429 47.3687 22.0429H43.0158V5.89128ZM47.265 12.7475C48.2462 12.7475 48.944 12.4984 49.3586 12.0003C49.7732 11.4875 49.9804 10.843 49.9804 10.0665C49.9804 8.67475 49.0407 7.97884 47.1614 7.97884H45.2959V12.7475H47.265ZM47.6796 19.9772C48.9371 19.9772 49.78 19.7135 50.2084 19.1861C50.6506 18.6441 50.8717 17.9628 50.8717 17.1425C50.8717 16.366 50.623 15.7654 50.1255 15.3405C49.628 14.9157 48.8749 14.7032 47.8662 14.7032H45.2959V19.9772H47.6796Z" fill="#0067C7"></path><path d="M61.9913 5.86928L69.3289 22.0429H66.6548L65.3492 18.8785H58.3636L57.058 22.0429H54.4671L61.7631 5.86928H61.9913ZM60.9545 12.7475L59.2964 16.659H64.4372L62.7993 12.7694L61.9081 10.55H61.8671L60.9545 12.7475Z" fill="#0067C7"></path><path d="M73.6937 11.5828L73.7556 13.3408V22.0429H71.434V5.86928H71.7247L80.6788 16.4612L80.5961 14.6153V5.89128H82.9177V22.0429H82.6068L73.6937 11.5828Z" fill="#0067C7"></path><path d="M90.5033 14.8131L89.2596 16.4393V22.0429H86.9796V5.89128H89.2596V13.0991L94.4831 5.89128H97.2607L92.0164 12.9892L98.0068 22.0429H95.1668L90.5033 14.8131Z" fill="#0067C7"></path><path d="M111.933 8.0448H104.844V5.89128H114.855L109.508 22.0429H106.854L111.933 8.0448Z" fill="#0067C7"></path><path d="M122.985 22.3725C122.017 22.3725 121.133 22.1674 120.332 21.7572C119.531 21.347 118.895 20.7683 118.425 20.0211C117.955 19.2594 117.72 18.3804 117.72 17.3842C117.72 16.344 117.948 15.487 118.404 14.8131C118.874 14.1392 119.468 13.6411 120.187 13.3188C119.648 12.9818 119.206 12.5277 118.86 11.9564C118.529 11.3704 118.363 10.7184 118.363 10.0006C118.363 9.12153 118.563 8.35246 118.964 7.69319C119.365 7.03397 119.917 6.52849 120.622 6.17694C121.327 5.81069 122.115 5.62755 122.985 5.62755C123.856 5.62755 124.643 5.81069 125.348 6.17694C126.053 6.52849 126.606 7.03397 127.006 7.69319C127.407 8.33777 127.607 9.09227 127.607 9.95667C127.607 10.7477 127.428 11.429 127.069 12.0003C126.723 12.557 126.267 13.0038 125.701 13.3408C126.433 13.6777 127.041 14.1831 127.525 14.8571C128.008 15.5163 128.25 16.3587 128.25 17.3842C128.25 18.3804 128.015 19.2594 127.545 20.0211C127.076 20.7683 126.433 21.347 125.617 21.7572C124.816 22.1674 123.939 22.3725 122.985 22.3725ZM122.985 12.3079C123.607 12.3079 124.139 12.0735 124.581 11.6048C125.023 11.1213 125.245 10.55 125.245 9.89071C125.245 9.20212 125.037 8.64543 124.623 8.2206C124.208 7.78109 123.662 7.56133 122.985 7.56133C122.294 7.56133 121.741 7.78109 121.327 8.2206C120.912 8.64543 120.705 9.20212 120.705 9.89071C120.705 10.5646 120.919 11.136 121.348 11.6048C121.776 12.0735 122.321 12.3079 122.985 12.3079ZM122.985 20.219C123.856 20.219 124.553 19.9479 125.079 19.4059C125.617 18.8491 125.887 18.1533 125.887 17.3183C125.887 16.4832 125.611 15.7946 125.058 15.2526C124.505 14.6959 123.814 14.4176 122.985 14.4176C122.142 14.4176 121.445 14.6886 120.892 15.2306C120.339 15.7581 120.063 16.4539 120.063 17.3183C120.063 18.1533 120.325 18.8491 120.85 19.4059C121.389 19.9479 122.101 20.219 122.985 20.219Z" fill="#0067C7"></path><path fill-rule="evenodd" clip-rule="evenodd" d="M32.25 26.6395C32.25 27.1507 31.7284 27.4831 31.2852 27.2545L17.7195 20.2586L20.6931 18.7171L29.5833 23.3018V4.6982L11.5462 14L14.7568 15.6557L11.7728 17.1918L6.77592 14.615C6.28456 14.3617 6.28456 13.6384 6.77592 13.385L31.2852 0.745491C31.7284 0.516897 32.25 0.849352 32.25 1.3605V26.6395Z" fill="#319905"></path><path fill-rule="evenodd" clip-rule="evenodd" d="M0.25 1.3605C0.25 0.849352 0.771541 0.516897 1.21481 0.745491L14.7805 7.74137L11.8069 9.28292L2.91667 4.6982V23.3018L20.9538 14L17.7432 12.3443L20.7272 10.8081L25.7241 13.385C26.2155 13.6384 26.2155 14.3617 25.7241 14.615L1.21481 27.2545C0.771541 27.4831 0.25 27.1507 0.25 26.6395V1.3605Z" fill="#0067C7"></path></svg>